<?xml version="1.0" encoding="UTF-8"?><svg id="Layer_1" xmlns="http://www.w3.org/2000/svg" xmlns:xlink="http://www.w3.org/1999/xlink" viewBox="0 0 562.69 801.78"><defs><style>.cls-1{letter-spacing:-.02em;}.cls-2{fill:url(#linear-gradient-2);}.cls-3{letter-spacing:-.02em;}.cls-4,.cls-5{fill:#fff;}.cls-6{fill:url(#linear-gradient-17);}.cls-7{font-size:11px;}.cls-7,.cls-8,.cls-9,.cls-10,.cls-11,.cls-12{font-variation-settings:'slnt' 0, 'FLAR' 0, 'VOLM' 0;}.cls-7,.cls-9,.cls-10,.cls-13,.cls-12{font-weight:700;}.cls-7,.cls-9,.cls-10,.cls-12{font-family:Commissioner-Bold, Commissioner;}.cls-7,.cls-9,.cls-13,.cls-12{fill:#09687a;}.cls-8,.cls-11{font-family:Commissioner-Regular, Commissioner;}.cls-14{letter-spacing:0em;}.cls-15{letter-spacing:0em;}.cls-16{fill:url(#linear-gradient-15);}.cls-17{letter-spacing:-.01em;}.cls-18{fill:url(#linear-gradient-18);}.cls-19{letter-spacing:0em;}.cls-20{fill:url(#linear-gradient-14);}.cls-21{fill:url(#linear-gradient-20);}.cls-22{fill:url(#linear-gradient-6);}.cls-5{stroke:url(#linear-gradient);stroke-miterlimit:10;stroke-width:1.62px;}.cls-23{letter-spacing:-.02em;}.cls-24{letter-spacing:-.01em;}.cls-25{fill:#0f7c84;}.cls-9{font-size:13px;}.cls-26{letter-spacing:-.02em;}.cls-27,.cls-11{font-size:10px;}.cls-28{letter-spacing:0em;}.cls-10{fill:#383a3a;}.cls-10,.cls-12{font-size:14px;}.cls-29{fill:url(#linear-gradient-11);}.cls-30{fill:none;stroke:url(#linear-gradient-24);stroke-linecap:round;stroke-linejoin:round;stroke-width:3px;}.cls-31{letter-spacing:0em;}.cls-32{letter-spacing:0em;}.cls-33{letter-spacing:0em;}.cls-34{fill:url(#linear-gradient-10);}.cls-35{letter-spacing:-.02em;}.cls-36{letter-spacing:0em;}.cls-37{fill:url(#linear-gradient-16);}.cls-38{letter-spacing:0em;}.cls-39{letter-spacing:0em;}.cls-13{font-family:Raleway-ExtraBold, Raleway;font-size:16px;}.cls-40{letter-spacing:0em;}.cls-41{fill:url(#linear-gradient-21);}.cls-42{letter-spacing:-.02em;}.cls-43{fill:url(#linear-gradient-5);}.cls-44{letter-spacing:0em;}.cls-45{letter-spacing:0em;}.cls-46{letter-spacing:-.03em;}.cls-47{fill:url(#linear-gradient-7);}.cls-48{letter-spacing:0em;}.cls-49{font-size:12px;}.cls-50{letter-spacing:-.02em;}.cls-51{fill:url(#linear-gradient-9);}.cls-52{fill:url(#linear-gradient-22);}.cls-53{fill:url(#linear-gradient-3);}.cls-54{letter-spacing:-.08em;}.cls-55{letter-spacing:0em;}.cls-56{letter-spacing:-.01em;}.cls-57{letter-spacing:0em;}.cls-58{letter-spacing:-.02em;}.cls-59{fill:url(#linear-gradient-23);}.cls-60{fill:url(#linear-gradient-19);}.cls-61{fill:url(#linear-gradient-4);}.cls-62{fill:url(#linear-gradient-8);}.cls-63{fill:url(#linear-gradient-12);}.cls-64{fill:url(#linear-gradient-13);}</style><linearGradient id="linear-gradient" x1="135.13" y1="400.89" x2="220.17" y2="400.89" gradientUnits="userSpaceOnUse"><stop offset="0" stop-color="#09687a"/><stop offset="1" stop-color="#169d97"/></linearGradient><linearGradient id="linear-gradient-2" x1="239.54" y1="62.48" x2="266.63" y2="52.62" xlink:href="#linear-gradient"/><linearGradient id="linear-gradient-3" x1="262.91" y1="56.22" x2="283.75" y2="48.63" xlink:href="#linear-gradient"/><linearGradient id="linear-gradient-4" x1="140.64" y1="169.51" x2="152.31" y2="169.51" xlink:href="#linear-gradient"/><linearGradient id="linear-gradient-5" x1="119.57" y1="168.58" x2="131.96" y2="168.58" xlink:href="#linear-gradient"/><linearGradient id="linear-gradient-6" x1="122.31" y1="168.58" x2="131.96" y2="168.58" xlink:href="#linear-gradient"/><linearGradient id="linear-gradient-7" x1="119.57" y1="171.64" x2="121.96" y2="171.64" xlink:href="#linear-gradient"/><linearGradient id="linear-gradient-8" x1="140.64" y1="307.07" x2="152.31" y2="307.07" xlink:href="#linear-gradient"/><linearGradient id="linear-gradient-9" x1="119.57" y1="306.14" x2="131.96" y2="306.14" xlink:href="#linear-gradient"/><linearGradient id="linear-gradient-10" x1="122.31" y1="306.14" x2="131.96" y2="306.14" xlink:href="#linear-gradient"/><linearGradient id="linear-gradient-11" x1="119.57" y1="309.2" x2="121.96" y2="309.2" xlink:href="#linear-gradient"/><linearGradient id="linear-gradient-12" x1="93.8" y1="310.46" x2="104.94" y2="310.46" xlink:href="#linear-gradient"/><linearGradient id="linear-gradient-13" x1="96.63" y1="304.73" x2="102.11" y2="304.73" xlink:href="#linear-gradient"/><linearGradient id="linear-gradient-14" x1="103.06" y1="309.65" x2="110.86" y2="309.65" xlink:href="#linear-gradient"/><linearGradient id="linear-gradient-15" x1="103.9" y1="304.98" x2="108.49" y2="304.98" xlink:href="#linear-gradient"/><linearGradient id="linear-gradient-16" x1="477.65" y1="752.61" x2="489.33" y2="752.61" xlink:href="#linear-gradient"/><linearGradient id="linear-gradient-17" x1="362.18" y1="775.84" x2="374.58" y2="775.84" xlink:href="#linear-gradient"/><linearGradient id="linear-gradient-18" x1="364.92" y1="775.84" x2="374.58" y2="775.84" xlink:href="#linear-gradient"/><linearGradient id="linear-gradient-19" x1="362.18" y1="778.9" x2="364.58" y2="778.9" xlink:href="#linear-gradient"/><linearGradient id="linear-gradient-20" x1="377.26" y1="756.14" x2="388.41" y2="756.14" xlink:href="#linear-gradient"/><linearGradient id="linear-gradient-21" x1="380.09" y1="750.41" x2="385.58" y2="750.41" xlink:href="#linear-gradient"/><linearGradient id="linear-gradient-22" x1="386.53" y1="755.33" x2="394.33" y2="755.33" xlink:href="#linear-gradient"/><linearGradient id="linear-gradient-23" x1="387.36" y1="750.66" x2="391.96" y2="750.66" xlink:href="#linear-gradient"/><linearGradient id="linear-gradient-24" x1="357.23" y1="60.1" x2="373.67" y2="60.1" xlink:href="#linear-gradient"/></defs><path class="cls-25" d="m179.83,145.44v4.33h-4.36v-4.33h4.36m1.62-1.62h-7.61v7.58h7.61v-7.58h0Z"/><path class="cls-5" d="m177.65.81c-23,0-41.71,18.71-41.71,41.72s18.15,41.15,40.67,41.7v716.74h2.07V84.23c22.52-.55,40.67-19.04,40.67-41.7S200.65.81,177.65.81Zm0,81.36c-21.86,0-39.64-17.78-39.64-39.64S155.79,2.88,177.65,2.88s39.64,17.79,39.64,39.65-17.78,39.64-39.64,39.64Z"/><path class="cls-2" d="m239.52,62.44c0-.14,0-.24,0-.34,0-1.85,0-3.7,0-5.55,0-.21.06-.36.21-.5,4.96-4.96,9.92-9.92,14.88-14.88.09-.09.24-.18.36-.18,2.43-.01,4.86,0,7.28,0,.03,0,.06,0,.15.02-5.07,5.08-10.11,10.14-15.2,15.24h15.2v13.83h-7.6v-7.62h-15.29Z"/><path class="cls-53" d="m265.71,48.65v-7.65h15.26c0,.09.01.2.02.3,0,2.35,0,4.7,0,7.05,0,.2-.06.34-.2.48-2.42,2.41-4.83,4.82-7.25,7.22-.15.15-.21.29-.21.5,0,2.31,0,4.62,0,6.94,0,.09,0,.19,0,.38,2.57-2.56,5.08-5.06,7.63-7.6v7.59h-15.26v-.29c0-2.34,0-4.68,0-7.02,0-.2.06-.34.2-.48,2.42-2.41,4.82-4.82,7.24-7.23.14-.14.2-.28.2-.48,0-2.33,0-4.66,0-7v-.27c-2.52,2.51-5.04,5.01-7.62,7.57Z"/><text class="cls-12" transform="translate(291.34 64.15)"><tspan x="0" y="0">Lisboa</tspan></text><text class="cls-10" transform="translate(239.22 29.24)"><tspan class="cls-56" x="0" y="0">M</tspan><tspan x="13.35" y="0">aria </tspan><tspan class="cls-32" x="40.45" y="0">M</tspan><tspan x="53.8" y="0">ar</tspan><tspan class="cls-39" x="66.95" y="0">g</tspan><tspan x="74.59" y="0">arida do Nascimen</tspan><tspan class="cls-45" x="191.88" y="0">t</tspan><tspan x="197.74" y="0">o </tspan><tspan class="cls-46" x="208.78" y="0">A</tspan><tspan x="218.47" y="0">guiar</tspan></text><text class="cls-13" transform="translate(117.88 152.68)"><tspan x="0" y="0">Li</tspan><tspan class="cls-55" x="13.68" y="0">b</tspan><tspan x="23.87" y="0">ft</tspan></text><text class="cls-8" transform="translate(203.71 152.99)"><tspan class="cls-49"><tspan x="0" y="0">Code some utility functions and build a C lib</tspan><tspan class="cls-56" x="234.86" y="0">r</tspan><tspan x="239.53" y="0">ary</tspan></tspan><tspan class="cls-27"><tspan x="0" y="20">Learned elements: ma</tspan><tspan class="cls-50" x="98.62" y="20">k</tspan><tspan class="cls-48" x="103.81" y="20">e</tspan><tspan x="109.01" y="20">file</tspan><tspan class="cls-44" x="123.35" y="20">s</tspan><tspan x="127.82" y="20">, </tspan><tspan class="cls-57" x="132.04" y="20">g</tspan><tspan x="137.36" y="20">ene</tspan><tspan class="cls-57" x="153.64" y="20">r</tspan><tspan x="157.54" y="20">ating function lib</tspan><tspan class="cls-24" x="234.03" y="20">r</tspan><tspan x="237.92" y="20">aries</tspan></tspan></text><path class="cls-25" d="m179.83,214.95v4.33h-4.36v-4.33h4.36m1.62-1.62h-7.61v7.58h7.61v-7.58h0Z"/><text class="cls-13" transform="translate(91.45 221.43)"><tspan x="0" y="0">ft_pri</tspan><tspan class="cls-38" x="40.9" y="0">n</tspan><tspan class="cls-55" x="50.67" y="0">t</tspan><tspan class="cls-58" x="57.06" y="0">f</tspan></text><text class="cls-8" transform="translate(203.71 221.22)"><tspan class="cls-49"><tspan x="0" y="0">Code C </tspan><tspan class="cls-14" x="41.47" y="0">s</tspan><tspan x="46.9" y="0">tanda</tspan><tspan class="cls-42" x="78.17" y="0">r</tspan><tspan x="82.76" y="0">d function printf</tspan></tspan><tspan class="cls-27"><tspan x="0" y="20">Learned elements: </tspan><tspan class="cls-56" x="84.66" y="20">v</tspan><tspan x="89.69" y="20">ariadic functions</tspan></tspan></text><polygon class="cls-61" points="146.48 163.96 148.28 167.62 152.31 168.2 149.39 171.05 150.08 175.07 146.48 173.17 142.87 175.07 143.56 171.05 140.64 168.2 144.67 167.62 146.48 163.96"/><path class="cls-43" d="m131.35,171.45c.13-.14.25-.27.37-.4.25-.28.31-.59.16-.93-.07-.16-.14-.32-.24-.46-.09-.14-.09-.25-.02-.39.07-.14.13-.28.19-.43.25-.69-.06-1.37-.76-1.6-.2-.06-.4-.13-.6-.14-.68-.02-1.37-.02-2.06-.03-.2,0-.4,0-.6-.02-.23-.03-.34-.19-.28-.42.04-.14.1-.28.16-.42.23-.53.48-1.05.7-1.58.3-.74.23-1.47-.14-2.17-.18-.35-.43-.45-.85-.38-.37.06-.58.25-.66.62-.03.14-.04.28-.04.42-.01.81-.31,1.47-.99,1.94-1.08.77-1.99,1.69-2.54,2.93-.1.23-.28.4-.53.48-.27.08-.31.14-.31.41,0,.67,0,1.35,0,2.02,0,1.13,0,2.27.02,3.4,0,.29.09.39.37.42.64.07,1.29.13,1.93.2,1.42.17,2.85.2,4.28.12.32-.02.64-.05.96-.09.53-.08.85-.38.95-.91.03-.15.03-.31.07-.46.04-.12.09-.26.18-.34.66-.57.74-1.03.28-1.78,0,0,0-.01,0-.01Zm-11.78.19c0,.93,0,1.87,0,2.8,0,.27.09.36.36.36.54,0,1.09,0,1.63,0,.32,0,.4-.08.4-.4,0-1.85,0-3.69,0-5.54,0-.3-.09-.38-.38-.38-.54,0-1.09,0-1.63,0-.29,0-.38.09-.38.38,0,.93,0,1.85,0,2.78Z"/><path class="cls-22" d="m131.35,171.45s0,0,0,.01c.46.75.38,1.21-.28,1.78-.09.08-.15.22-.18.34-.04.15-.04.31-.07.46-.1.53-.42.83-.95.91-.32.05-.64.07-.96.09-1.43.08-2.86.05-4.28-.12-.64-.08-1.29-.13-1.93-.2-.28-.03-.37-.13-.37-.42,0-1.13-.01-2.27-.02-3.4,0-.67,0-1.35,0-2.02,0-.27.04-.34.31-.41.26-.07.43-.25.53-.48.55-1.24,1.45-2.16,2.54-2.93.67-.48.97-1.13.99-1.94,0-.14.02-.29.04-.42.07-.36.29-.56.66-.62.42-.06.66.03.85.38.37.7.44,1.43.14,2.17-.22.53-.46,1.05-.7,1.58-.06.14-.12.27-.16.42-.06.23.05.39.28.42.2.02.4.02.6.02.69,0,1.37,0,2.06.03.2,0,.41.07.6.14.69.23,1.01.91.76,1.6-.05.15-.11.29-.19.43-.07.14-.08.25.02.39.1.14.17.3.24.46.15.34.09.66-.16.93-.12.13-.24.25-.37.4Z"/><path class="cls-47" d="m119.57,171.64c0-.93,0-1.85,0-2.78,0-.29.09-.38.38-.38.54,0,1.09,0,1.63,0,.3,0,.38.09.38.38,0,1.85,0,3.69,0,5.54,0,.32-.08.4-.4.4-.54,0-1.09,0-1.63,0-.27,0-.36-.09-.36-.36,0-.93,0-1.87,0-2.8Z"/><path class="cls-25" d="m179.83,285.11v4.33h-4.36v-4.33h4.36m1.62-1.62h-7.61v7.58h7.61v-7.58h0Z"/><text class="cls-13" transform="translate(17.4 290.74)"><tspan x="0" y="0">ft_t</tspan><tspan class="cls-31" x="26.37" y="0">r</tspan><tspan x="32.7" y="0">ans</tspan><tspan class="cls-19" x="59.82" y="0">c</tspan><tspan x="68.86" y="0">enden</tspan><tspan class="cls-33" x="118.24" y="0">c</tspan><tspan x="127.28" y="0">e</tspan></text><text class="cls-8" transform="translate(203.71 291.53)"><tspan class="cls-49"><tspan x="0" y="0">C</tspan><tspan class="cls-42" x="8.22" y="0">r</tspan><tspan x="12.8" y="0">ea</tspan><tspan class="cls-15" x="25.41" y="0">t</tspan><tspan x="30.24" y="0">e a ser</tspan><tspan class="cls-42" x="64.03" y="0">v</tspan><tspan x="69.97" y="0">er whe</tspan><tspan class="cls-42" x="106.21" y="0">r</tspan><tspan x="110.79" y="0">e use</tspan><tspan class="cls-42" x="137.91" y="0">r</tspan><tspan x="142.49" y="0">s can comp</tspan><tspan class="cls-15" x="202.31" y="0">et</tspan><tspan x="213.38" y="0">e in a </tspan><tspan class="cls-15" x="242.84" y="0">g</tspan><tspan x="249.25" y="0">ame </tspan><tspan class="cls-15" x="274.62" y="0">o</tspan><tspan x="281.7" y="0">f pong</tspan></tspan><tspan class="cls-27"><tspan x="0" y="20">Learned elements: n</tspan><tspan class="cls-48" x="90.39" y="20">e</tspan><tspan x="95.59" y="20">t</tspan><tspan class="cls-26" x="99.69" y="20">w</tspan><tspan x="107.52" y="20">ork &amp; </tspan><tspan class="cls-57" x="134.08" y="20">s</tspan><tspan class="cls-28" x="138.53" y="20">y</tspan><tspan class="cls-40" x="143.65" y="20">s</tspan><tspan class="cls-44" x="148.18" y="20">t</tspan><tspan x="152.2" y="20">em admini</tspan><tspan class="cls-36" x="198.72" y="20">s</tspan><tspan x="203.24" y="20">t</tspan><tspan class="cls-57" x="207.34" y="20">r</tspan><tspan x="211.24" y="20">ation</tspan></tspan></text><rect class="cls-4" x="4.26" y="348.07" width="527.19" height="115.21"/><path class="cls-25" d="m186.54,349.4v.46h-17.77v-.46h17.77m1.5-1.5h-20.77v3.46h20.77v-3.46h0Z"/><text class="cls-9" transform="translate(126.13 375.16)"><tspan x="0" y="0">C</tspan><tspan class="cls-3" x="8.89" y="0">O</tspan><tspan x="19.25" y="0">M</tspan><tspan class="cls-1" x="31.77" y="0">M</tspan><tspan x="44.08" y="0">ON CORE</tspan></text><text class="cls-9" transform="translate(89.15 446.52)"><tspan x="0" y="0">SECURITY SPECIALIZ</tspan><tspan class="cls-54" x="133.6" y="0">A</tspan><tspan x="141.85" y="0">TION</tspan></text><path class="cls-25" d="m186.54,461.56v.46h-17.77v-.46h17.77m1.5-1.5h-20.77v3.46h20.77v-3.46h0Z"/><polygon class="cls-62" points="146.48 301.52 148.28 305.18 152.31 305.76 149.39 308.61 150.08 312.63 146.48 310.73 142.87 312.63 143.56 308.61 140.64 305.76 144.67 305.18 146.48 301.52"/><path class="cls-51" d="m131.35,309.01c.13-.14.25-.27.37-.4.25-.28.31-.59.16-.93-.07-.16-.14-.32-.24-.46-.09-.14-.09-.25-.02-.39.07-.14.13-.28.19-.43.25-.69-.06-1.37-.76-1.6-.2-.06-.4-.13-.6-.14-.68-.02-1.37-.02-2.06-.03-.2,0-.4,0-.6-.02-.23-.03-.34-.19-.28-.42.04-.14.1-.28.16-.42.23-.53.48-1.05.7-1.58.3-.74.23-1.47-.14-2.17-.18-.35-.43-.45-.85-.38-.37.06-.58.25-.66.62-.03.14-.04.28-.04.42-.01.81-.31,1.47-.99,1.94-1.08.77-1.99,1.69-2.54,2.93-.1.23-.28.4-.53.48-.27.08-.31.14-.31.41,0,.67,0,1.35,0,2.02,0,1.13,0,2.27.02,3.4,0,.29.09.39.37.42.64.07,1.29.13,1.93.2,1.42.17,2.85.2,4.28.12.32-.02.64-.05.96-.09.53-.08.85-.38.95-.91.03-.15.03-.31.07-.46.04-.12.09-.26.18-.34.66-.57.74-1.03.28-1.78,0,0,0-.01,0-.01Zm-11.78.19c0,.93,0,1.87,0,2.8,0,.27.09.36.36.36.54,0,1.09,0,1.63,0,.32,0,.4-.08.4-.4,0-1.85,0-3.69,0-5.54,0-.3-.09-.38-.38-.38-.54,0-1.09,0-1.63,0-.29,0-.38.09-.38.38,0,.93,0,1.85,0,2.78Z"/><path class="cls-34" d="m131.35,309.01s0,0,0,.01c.46.75.38,1.21-.28,1.78-.09.08-.15.22-.18.34-.04.15-.04.31-.07.46-.1.53-.42.83-.95.91-.32.05-.64.07-.96.09-1.43.08-2.86.05-4.28-.12-.64-.08-1.29-.13-1.93-.2-.28-.03-.37-.13-.37-.42,0-1.13-.01-2.27-.02-3.4,0-.67,0-1.35,0-2.02,0-.27.04-.34.31-.41.26-.07.43-.25.53-.48.55-1.24,1.45-2.16,2.54-2.93.67-.48.97-1.13.99-1.94,0-.14.02-.29.04-.42.07-.36.29-.56.66-.62.42-.06.66.03.85.38.37.7.44,1.43.14,2.17-.22.53-.46,1.05-.7,1.58-.06.14-.12.27-.16.42-.06.23.05.39.28.42.2.02.4.02.6.02.69,0,1.37,0,2.06.03.2,0,.41.07.6.14.69.23,1.01.91.76,1.6-.05.15-.11.29-.19.43-.07.14-.08.25.02.39.1.14.17.3.24.46.15.34.09.66-.16.93-.12.13-.24.25-.37.4Z"/><path class="cls-29" d="m119.57,309.2c0-.93,0-1.85,0-2.78,0-.29.09-.38.38-.38.54,0,1.09,0,1.63,0,.3,0,.38.09.38.38,0,1.85,0,3.69,0,5.54,0,.32-.08.4-.4.4-.54,0-1.09,0-1.63,0-.27,0-.36-.09-.36-.36,0-.93,0-1.87,0-2.8Z"/><path class="cls-63" d="m99.36,313.05c-1.8,0-3.61,0-5.41,0-.12,0-.12,0-.13-.12,0-.12-.02-.24-.02-.35,0-.15,0-.29.02-.44.07-.78.32-1.5.74-2.15.24-.37.52-.71.86-1,.36-.3.74-.56,1.18-.74.31-.13.62-.23.95-.29.28-.05.56-.08.85-.08.67,0,1.34,0,2,0,.66,0,1.28.15,1.88.43.74.35,1.34.88,1.81,1.54.32.44.54.93.68,1.46.12.46.18.92.16,1.39,0,.1,0,.19,0,.29,0,.04-.02.05-.06.05-.08,0-.17,0-.25,0-1.75,0-3.51,0-5.26,0Z"/><path class="cls-64" d="m99.42,301.92c.71.03,1.33.28,1.84.78.38.37.64.81.77,1.33.08.34.11.68.07,1.02-.08.64-.34,1.2-.78,1.66-.41.42-.91.68-1.48.79-.66.12-1.28,0-1.85-.36-.7-.43-1.12-1.05-1.29-1.85-.11-.52-.07-1.04.12-1.54.27-.71.75-1.24,1.44-1.57.37-.17.76-.26,1.16-.25Z"/><path class="cls-20" d="m103.06,308.31c.27-.21.56-.37.87-.49.46-.18.93-.28,1.42-.27.55,0,1.1,0,1.65,0,.67,0,1.29.16,1.88.48.61.33,1.09.81,1.45,1.41.27.45.42.93.49,1.44.04.27.04.55.01.83,0,.03-.01.05-.05.05-1.81,0-3.62,0-5.44,0-.09,0-.09,0-.11-.09-.14-.91-.5-1.71-1.1-2.41-.31-.36-.66-.67-1.07-.91,0,0-.01-.01-.02-.02Z"/><path class="cls-16" d="m106.18,302.7c1.29-.01,2.32,1.07,2.31,2.3-.02,1.3-1.07,2.27-2.29,2.27-1.26,0-2.3-1.01-2.3-2.31,0-1.28,1.12-2.27,2.28-2.25Z"/><polygon class="cls-37" points="483.49 747.05 485.29 750.71 489.33 751.29 486.41 754.14 487.1 758.16 483.49 756.26 479.88 758.16 480.57 754.14 477.65 751.29 481.69 750.71 483.49 747.05"/><text class="cls-11" transform="translate(494.21 757.33)"><tspan x="0" y="0">Bonus Sco</tspan><tspan class="cls-35" x="46.99" y="0">r</tspan><tspan x="50.81" y="0">e</tspan></text><path class="cls-6" d="m373.97,778.71c.13-.14.25-.27.37-.4.25-.28.31-.59.16-.93-.07-.16-.14-.32-.24-.46-.09-.14-.09-.25-.02-.39.07-.14.13-.28.19-.43.25-.69-.06-1.37-.76-1.6-.2-.06-.4-.13-.6-.14-.68-.02-1.37-.02-2.06-.03-.2,0-.4,0-.6-.02-.23-.03-.34-.19-.28-.42.04-.14.1-.28.16-.42.23-.53.48-1.05.7-1.58.3-.74.23-1.47-.14-2.17-.18-.35-.43-.45-.85-.38-.37.06-.58.25-.66.62-.03.14-.04.28-.04.42-.01.81-.31,1.47-.99,1.94-1.08.77-1.99,1.69-2.54,2.93-.1.23-.28.4-.53.48-.27.08-.31.14-.31.41,0,.67,0,1.35,0,2.02,0,1.13,0,2.27.02,3.4,0,.29.09.39.37.42.64.07,1.29.13,1.93.2,1.42.17,2.85.2,4.28.12.32-.02.64-.05.96-.09.53-.08.85-.38.95-.91.03-.15.03-.31.07-.46.04-.12.09-.26.18-.34.66-.57.74-1.03.28-1.78,0,0,0-.01,0-.01Zm-11.78.19c0,.93,0,1.87,0,2.8,0,.27.09.36.36.36.54,0,1.09,0,1.63,0,.32,0,.4-.08.4-.4,0-1.85,0-3.69,0-5.54,0-.3-.09-.38-.38-.38-.54,0-1.09,0-1.63,0-.29,0-.38.09-.38.38,0,.93,0,1.85,0,2.78Z"/><path class="cls-18" d="m373.97,778.71s0,0,0,.01c.46.75.38,1.21-.28,1.78-.09.08-.15.22-.18.34-.04.15-.04.31-.07.46-.1.53-.42.83-.95.91-.32.05-.64.07-.96.09-1.43.08-2.86.05-4.28-.12-.64-.08-1.29-.13-1.93-.2-.28-.03-.37-.13-.37-.42,0-1.13-.01-2.27-.02-3.4,0-.67,0-1.35,0-2.02,0-.27.04-.34.31-.41.26-.07.43-.25.53-.48.55-1.24,1.45-2.16,2.54-2.93.67-.48.97-1.13.99-1.94,0-.14.02-.29.04-.42.07-.36.29-.56.66-.62.42-.06.66.03.85.38.37.7.44,1.43.14,2.17-.22.53-.46,1.05-.7,1.58-.06.14-.12.27-.16.42-.06.23.05.39.28.42.2.02.4.02.6.02.69,0,1.37,0,2.06.03.2,0,.41.07.6.14.69.23,1.01.91.76,1.6-.05.15-.11.29-.19.43-.07.14-.08.25.02.39.1.14.17.3.24.46.15.34.09.66-.16.93-.12.13-.24.25-.37.4Z"/><path class="cls-60" d="m362.18,778.9c0-.93,0-1.85,0-2.78,0-.29.09-.38.38-.38.54,0,1.09,0,1.63,0,.3,0,.38.09.38.38,0,1.85,0,3.69,0,5.54,0,.32-.08.4-.4.4-.54,0-1.09,0-1.63,0-.27,0-.36-.09-.36-.36,0-.93,0-1.87,0-2.8Z"/><text class="cls-11" transform="translate(381.78 780.98)"><tspan x="0" y="0">Code </tspan><tspan class="cls-35" x="25.79" y="0">r</tspan><tspan class="cls-17" x="29.61" y="0">e</tspan><tspan x="34.76" y="0">vi</tspan><tspan class="cls-17" x="42.46" y="0">e</tspan><tspan class="cls-35" x="47.61" y="0">w</tspan><tspan x="55.44" y="0">ed as e</tspan><tspan class="cls-50" x="85.37" y="0">x</tspan><tspan x="90.47" y="0">emplary </tspan><tspan class="cls-17" x="129.24" y="0">b</tspan><tspan x="135.03" y="0">y pee</tspan><tspan class="cls-35" x="158.58" y="0">r</tspan><tspan x="162.41" y="0">s</tspan></text><text class="cls-11" transform="translate(401.2 757.33)"><tspan x="0" y="0">G</tspan><tspan class="cls-35" x="7.33" y="0">r</tspan><tspan x="11.15" y="0">oup P</tspan><tspan class="cls-35" x="36.82" y="0">r</tspan><tspan x="40.64" y="0">oject</tspan></text><path class="cls-21" d="m382.83,758.73c-1.8,0-3.61,0-5.41,0-.12,0-.12,0-.13-.12,0-.12-.02-.24-.02-.35,0-.15,0-.29.02-.44.07-.78.32-1.5.74-2.15.24-.37.52-.71.86-1,.36-.3.74-.56,1.18-.74.31-.13.62-.23.95-.29.28-.05.56-.08.85-.08.67,0,1.34,0,2,0,.66,0,1.28.15,1.88.43.74.35,1.34.88,1.81,1.54.32.44.54.93.68,1.46.12.46.18.92.16,1.39,0,.1,0,.19,0,.29,0,.04-.02.05-.06.05-.08,0-.17,0-.25,0-1.75,0-3.51,0-5.26,0Z"/><path class="cls-41" d="m382.88,747.6c.71.03,1.33.28,1.84.78.38.37.64.81.77,1.33.08.34.11.68.07,1.02-.08.64-.34,1.2-.78,1.66-.41.42-.91.68-1.48.79-.66.12-1.28,0-1.85-.36-.7-.43-1.12-1.05-1.29-1.85-.11-.52-.07-1.04.12-1.54.27-.71.75-1.24,1.44-1.57.37-.17.76-.26,1.16-.25Z"/><path class="cls-52" d="m386.53,753.99c.27-.21.56-.37.87-.49.46-.18.93-.28,1.42-.27.55,0,1.1,0,1.65,0,.67,0,1.29.16,1.88.48.61.33,1.09.81,1.45,1.41.27.45.42.93.49,1.44.04.27.04.55.01.83,0,.03-.01.05-.05.05-1.81,0-3.62,0-5.44,0-.09,0-.09,0-.11-.09-.14-.91-.5-1.71-1.1-2.41-.31-.36-.66-.67-1.07-.91,0,0-.01-.01-.02-.02Z"/><path class="cls-59" d="m389.65,748.38c1.29-.01,2.32,1.07,2.31,2.3-.02,1.3-1.07,2.27-2.29,2.27-1.26,0-2.3-1.01-2.3-2.31,0-1.28,1.12-2.27,2.28-2.25Z"/><text class="cls-7" transform="translate(380.44 65.76)"><tspan x="0" y="0">C</tspan><tspan class="cls-23" x="7.52" y="0">O</tspan><tspan x="16.29" y="0">M</tspan><tspan class="cls-23" x="26.88" y="0">M</tspan><tspan x="37.29" y="0">ON CORE</tspan></text><polyline class="cls-30" points="372.17 54.08 364.7 66.11 358.73 59.6"/></svg>