<?xml version="1.0" encoding="UTF-8"?><svg id="Layer_2" xmlns="http://www.w3.org/2000/svg" xmlns:xlink="http://www.w3.org/1999/xlink" viewBox="0 0 41.47 29.08"><defs><style>.cls-1{fill:url(#linear-gradient-2);}.cls-2{fill:url(#linear-gradient);}</style><linearGradient id="linear-gradient" x1=".02" y1="21.51" x2="27.12" y2="11.64" gradientUnits="userSpaceOnUse"><stop offset="0" stop-color="#09687a"/><stop offset="1" stop-color="#169d97"/></linearGradient><linearGradient id="linear-gradient-2" x1="23.4" y1="15.24" x2="44.23" y2="7.66" xlink:href="#linear-gradient"/></defs><g id="Layer_1-2"><path class="cls-2" d="m0,21.46c0-.14,0-.24,0-.34,0-1.85,0-3.7,0-5.55,0-.21.06-.36.21-.5C5.17,10.11,10.13,5.15,15.09.19c.09-.09.24-.18.36-.18C17.88,0,20.31,0,22.74,0c.03,0,.06,0,.15.02-5.07,5.08-10.11,10.14-15.2,15.24h15.2v13.83h-7.6v-7.62H0Z"/><path class="cls-1" d="m26.19,7.67V.02h15.26c0,.09.01.2.02.3,0,2.35,0,4.7,0,7.05,0,.2-.06.34-.2.48-2.42,2.41-4.83,4.82-7.25,7.22-.15.15-.21.29-.21.5,0,2.31,0,4.62,0,6.94,0,.09,0,.19,0,.38,2.57-2.56,5.08-5.06,7.63-7.6v7.59h-15.26v-.29c0-2.34,0-4.68,0-7.02,0-.2.06-.34.2-.48,2.42-2.41,4.82-4.82,7.24-7.23.14-.14.2-.28.2-.48,0-2.33,0-4.66,0-7V.1c-2.52,2.51-5.04,5.01-7.62,7.57Z"/></g></svg>